<?xml version="1.0" encoding="utf-8"?>
<!-- Generator: Adobe Illustrator 13.0.0, SVG Export Plug-In . SVG Version: 6.00 Build 14948)  -->
<!DOCTYPE svg PUBLIC "-//W3C//DTD SVG 1.1//EN" "http://www.w3.org/Graphics/SVG/1.1/DTD/svg11.dtd">
<svg version="1.1" id="Layer_1" xmlns="http://www.w3.org/2000/svg" xmlns:xlink="http://www.w3.org/1999/xlink" x="0px" y="0px"
	 width="299.293px" height="119.093px" viewBox="0 0 299.293 119.093" enable-background="new 0 0 299.293 119.093"
	 xml:space="preserve">
<path fill="#FFFFFF" d="M132.912,58.538c-8.149-4.028-13.48-11.355-17.88-19.065c-1.236-2.166-2.431-4.354-3.636-6.537
	c-4.122-7.467-9.278-19.799-18.724-21.806c-2.244-0.477-5.086-0.326-7.275,0.387C77.248,14.17,71.479,24.29,65.762,31.046
	c-7.6,8.982-19.511,18.559-30.703,20.395c-3.249,0.533-6.538,0.861-9.832,0.854c11.848,0.027,17.926,0.405,29.127-4.706
	c3.004-1.371,11.768-7.371,14.451-9.297c4.324-3.104,8.698-6.644,13.782-8.42c2.767-0.967,5.649-1.375,8.56-0.874
	c8.738,1.504,11.852,11.774,15.945,18.317c1.424,2.276,3.129,4.474,5.065,6.342c4.513,4.353,10.221,7.315,16.385,8.51
	c3.738,0.727,8.339,0.752,11.995-0.299c-0.949,0.271-2.55-0.908-3.351-1.289C135.766,59.902,134.328,59.238,132.912,58.538z"/>
<rect x="142.339" y="53.046" fill="#FFFFFF" width="5.358" height="8.667"/>
<rect x="149.955" y="53.046" fill="#FFFFFF" width="5.359" height="5.644"/>
<rect x="157.57" y="53.046" fill="#FFFFFF" width="5.359" height="2.62"/>
<rect x="166.032" y="41.713" fill="#FFFFFF" width="5.358" height="11.333"/>
<rect x="174.493" y="31.713" fill="#FFFFFF" width="5.358" height="21.333"/>
<rect x="182.955" y="1.713" fill="#FFFFFF" width="5.359" height="51.333"/>
<polyline fill="#FFFFFF" points="182.955,1.901 180.205,4.65 180.205,7.817 185.07,8.234 "/>
<g>
	<path fill="#FFFFFF" d="M192.217,53.295V1.352h13.656c8.887,0,15.6,2.132,20.141,6.394c4.539,4.262,6.811,10.559,6.811,18.89
		c0,4.009-0.635,7.656-1.902,10.939c-1.268,3.284-3.097,6.092-5.486,8.422c-2.392,2.331-5.289,4.129-8.693,5.397
		c-3.405,1.268-7.245,1.902-11.52,1.902L192.217,53.295L192.217,53.295z M197.035,5.771v43.142h7.97
		c3.573,0,6.769-0.483,9.581-1.449c2.813-0.965,5.197-2.384,7.152-4.256c1.957-1.872,3.447-4.184,4.475-6.937s1.54-5.916,1.54-9.49
		c0-14.006-7.401-21.009-22.205-21.009L197.035,5.771L197.035,5.771z"/>
</g>
<g>
	<path fill="#FFFFFF" d="M75.856,106.005c0.792,0.594,1.667,1.127,2.623,1.601c0.957,0.474,1.936,0.869,2.937,1.188
		c1,0.318,2.007,0.561,3.019,0.726c1.011,0.165,1.979,0.248,2.903,0.248c3.585,0,6.269-0.692,8.051-2.079
		c1.782-1.387,2.672-3.376,2.672-5.973c0-1.254-0.209-2.348-0.627-3.282s-1.067-1.81-1.947-2.623
		c-0.88-0.813-1.991-1.622-3.332-2.425c-1.342-0.803-2.926-1.711-4.751-2.723c-2.024-1.1-3.756-2.14-5.196-3.117
		c-1.441-0.979-2.618-1.979-3.53-3.004c-0.913-1.021-1.584-2.127-2.013-3.314s-0.644-2.541-0.644-4.059
		c0-1.914,0.407-3.629,1.221-5.146c0.813-1.52,1.914-2.811,3.3-3.877c1.386-1.066,3.007-1.887,4.866-2.458
		c1.859-0.571,3.844-0.858,5.956-0.858c3.717,0,6.83,0.519,9.337,1.551v4.852c-2.794-1.605-6.071-2.408-9.833-2.408
		c-1.408,0-2.733,0.17-3.976,0.512c-1.243,0.34-2.332,0.842-3.267,1.5c-0.935,0.66-1.672,1.479-2.21,2.459
		c-0.539,0.979-0.808,2.117-0.808,3.414c0,1.232,0.181,2.293,0.544,3.185c0.363,0.892,0.945,1.731,1.749,2.524
		c0.803,0.791,1.858,1.578,3.167,2.358c1.308,0.781,2.909,1.679,4.8,2.688c1.98,1.056,3.707,2.084,5.18,3.084
		c1.474,1.002,2.7,2.047,3.679,3.136s1.71,2.243,2.194,3.464c0.483,1.223,0.726,2.58,0.726,4.075c0,2.067-0.385,3.888-1.155,5.461
		c-0.771,1.571-1.848,2.876-3.233,3.909c-1.386,1.033-3.036,1.814-4.949,2.343s-4.015,0.792-6.302,0.792
		c-0.748,0-1.639-0.061-2.673-0.182s-2.079-0.297-3.134-0.528c-1.056-0.229-2.062-0.505-3.019-0.824
		c-0.957-0.317-1.732-0.665-2.326-1.038L75.856,106.005L75.856,106.005z"/>
	<path fill="#FFFFFF" d="M131.715,113.759c-3.41,0-6.478-0.622-9.205-1.864c-2.728-1.243-5.043-2.94-6.945-5.099
		c-1.903-2.154-3.365-4.689-4.388-7.604c-1.023-2.914-1.534-6.043-1.534-9.387c0-3.695,0.511-7.077,1.534-10.146
		c1.023-3.07,2.513-5.697,4.471-7.887c1.958-2.188,4.355-3.895,7.192-5.113c2.838-1.222,6.071-1.832,9.701-1.832
		c3.343,0,6.345,0.6,9.007,1.799c2.661,1.199,4.927,2.859,6.796,4.981c1.87,2.123,3.304,4.636,4.306,7.539
		c1,2.903,1.5,6.062,1.5,9.47c0,3.586-0.489,6.912-1.467,9.98c-0.979,3.068-2.42,5.725-4.323,7.968
		c-1.903,2.244-4.245,4.004-7.028,5.278C138.55,113.119,135.345,113.759,131.715,113.759z M132.079,68.821
		c-2.86,0-5.395,0.546-7.605,1.634c-2.21,1.09-4.075,2.563-5.592,4.422c-1.518,1.858-2.667,4.035-3.448,6.533
		c-0.781,2.496-1.183,5.151-1.205,7.967c-0.022,2.685,0.324,5.252,1.04,7.705c0.714,2.453,1.792,4.619,3.233,6.5
		c1.44,1.881,3.261,3.381,5.46,4.502c2.199,1.123,4.773,1.685,7.721,1.685c2.947,0,5.537-0.513,7.77-1.534
		c2.232-1.023,4.096-2.441,5.592-4.257c1.496-1.813,2.623-3.976,3.382-6.483c0.759-2.507,1.139-5.246,1.139-8.215
		c0-2.771-0.336-5.4-1.006-7.886c-0.671-2.485-1.716-4.657-3.135-6.517c-1.418-1.858-3.228-3.332-5.427-4.422
		C137.797,69.367,135.158,68.821,132.079,68.821z"/>
	<path fill="#FFFFFF" d="M163.621,112.934V65.621h4.388v43.321h19.005v3.992H163.621z"/>
	<path fill="#FFFFFF" d="M207.469,112.934h-4.289l-17.223-47.313h4.916l13.396,37.813c0.242,0.704,0.455,1.413,0.644,2.128
		c0.187,0.715,0.335,1.457,0.444,2.228h0.133c0.109-0.615,0.264-1.293,0.462-2.029s0.45-1.533,0.759-2.393l13.957-37.744h4.751
		L207.469,112.934z"/>
	<path fill="#FFFFFF" d="M232.512,112.934V65.621h23.063v4.025H236.9V87h17.289v3.961H236.9v17.98h19.73v3.992L232.512,112.934
		L232.512,112.934z"/>
	<path fill="#FFFFFF" d="M292.264,112.934l-7.127-13.562c-0.703-1.342-1.386-2.463-2.046-3.365c-0.659-0.9-1.342-1.621-2.045-2.16
		c-0.704-0.539-1.458-0.924-2.261-1.155c-0.803-0.229-1.699-0.346-2.688-0.346h-5.214v20.588h-4.389V65.621h13.627
		c1.78,0,3.502,0.264,5.163,0.793c1.66,0.527,3.14,1.309,4.438,2.342c1.299,1.035,2.338,2.332,3.118,3.894
		c0.78,1.563,1.173,3.377,1.173,5.444c0,1.672-0.255,3.212-0.76,4.619c-0.507,1.408-1.227,2.656-2.161,3.744
		c-0.936,1.09-2.067,2.014-3.397,2.771c-1.332,0.759-2.834,1.324-4.504,1.699v0.132c0.638,0.265,1.221,0.604,1.748,1.022
		s1.039,0.924,1.535,1.518c0.493,0.595,0.982,1.275,1.467,2.046c0.483,0.771,0.99,1.649,1.519,2.64l7.952,14.649H292.264z
		 M270.884,69.646v18.708h7.853c1.584,0,3.035-0.231,4.354-0.692c1.32-0.463,2.447-1.123,3.384-1.979
		c0.935-0.858,1.659-1.892,2.176-3.103c0.518-1.209,0.775-2.572,0.775-4.09c0-2.75-0.886-4.912-2.654-6.484
		c-1.771-1.571-4.328-2.358-7.672-2.358L270.884,69.646L270.884,69.646z"/>
</g>
<line fill="none" stroke="#FFFFFF" x1="26.688" y1="53.338" x2="102.438" y2="53.338"/>
<g>
	<path fill="#FFFFFF" d="M3.096,64.739h9.339c4.947,0,8.145,1.086,9.592,3.258S24.2,74.971,24.2,82.404v11.365
		c0,8.761-0.694,14.348-2.082,16.76c-1.388,2.414-4.615,3.62-9.683,3.62H3.096v-13.212h2.425V77.372H3.096V64.739z M12.436,77.372
		v23.565l1.05-0.036c1.544,0,2.503-0.332,2.877-0.996c0.374-0.663,0.561-2.371,0.561-5.122v-9.99c0-3.354-0.193-5.43-0.579-6.227
		c-0.386-0.796-1.375-1.194-2.968-1.194H12.436z"/>
	<path fill="#FFFFFF" d="M47.222,64.739v20.307h-6.19v-7.674h-4.453v9.846h6.045v5.068h-6.045v8.651h2.715v13.212H27.313v-13.212
		h2.353V77.372h-2.353V64.739H47.222z"/>
	<path fill="#FFFFFF" d="M70.279,64.739v21.827h-4.199v-9.194h-3.186v23.565h2.353v13.212H53.267v-13.212h2.715V77.372h-3.331v9.194
		h-4.199V64.739H70.279z"/>
</g>
</svg>
